<?xml version="1.0" encoding="utf-8"?>
<!-- Generator: Adobe Illustrator 26.0.0, SVG Export Plug-In . SVG Version: 6.00 Build 0)  -->
<svg version="1.1" id="Capa_1" xmlns="http://www.w3.org/2000/svg" xmlns:xlink="http://www.w3.org/1999/xlink" x="0px" y="0px"
	 viewBox="0 0 32 32" style="enable-background:new 0 0 32 32;" xml:space="preserve">
<style type="text/css">
	.st0{fill:#F24C4C;}
	.st1{fill:#43CFEF;}
</style>
<g>
	<path d="M-1250.6,176.57"/>
	<g>
		<path class="st0" d="M-545.24,187.18h94.35v181.05c-24.22,18.28-52.27,32.3-84.15,42.08c-31.87,9.77-63.97,7.01-96.26,7.01
			c-46.33,0-87.97-2.23-124.95-21.99c-36.97-19.76-65.98-47.17-87.02-82.24c-21.04-35.06-31.56-74.69-31.56-118.89
			c0-44.2,10.52-83.83,31.56-118.89c21.04-35.06,50.25-62.47,87.66-82.24c37.39-19.76,79.47-21.99,126.22-21.99
			c39.09,0,74.59-1.06,106.46,12.11c31.87,13.18,58.65,32.3,80.32,57.37l-66.3,61.2c-31.87-33.57-70.34-50.36-115.39-50.36
			c-28.48,0-53.77,5.96-75.86,17.85c-22.1,11.9-39.32,28.69-51.64,50.36c-12.33,21.67-18.49,46.54-18.49,74.59
			c0,27.63,6.16,52.27,18.49,73.95c12.32,21.67,29.42,38.57,51.32,50.68c21.88,12.11,46.86,18.17,74.91,18.17
			c29.74,0,56.52-6.37,80.32-19.12V187.18z"/>
	</g>
	<g>
		<polygon class="st1" points="-1073.61,242.98 -1099.44,322.93 -969.6,321.69 -930.08,417.32 -824.25,417.32 -995.52,33.3 
			-1023.15,-28.62 -1172.33,-28.62 -1172.34,33.3 -1083.45,49.28 -1002.75,243.28 		"/>
		<path d="M-1421.27,372.36c-35.49-35.27-53.23-85.63-53.23-151.08v-249.9h103.27v246.07c0,79.91,33.15,119.85,99.45,119.85
			c32.29,0,56.95-9.66,73.95-29.01c16.99-19.33,25.5-49.62,25.5-90.84V-28.62h102v249.9c0,65.45-17.75,115.81-53.23,151.08
			c-35.49,35.28-87.89,44.96-151.64,44.96S-1385.79,407.64-1421.27,372.36z"/>
	</g>
</g>
<g>
	<path d="M11.13,15.14"/>
	<g>
		<polygon class="st1" points="19.65,18.34 18.4,22.19 24.65,22.13 26.55,26.73 31.64,26.73 23.4,8.25 22.07,5.27 14.9,5.27 
			14.9,8.25 19.17,9.02 23.05,18.35 		"/>
		<path d="M2.92,24.56c-1.71-1.7-2.56-4.12-2.56-7.27V5.27h4.97v11.84c0,3.84,1.59,5.77,4.78,5.77c1.55,0,2.74-0.46,3.56-1.4
			c0.82-0.93,1.23-2.39,1.23-4.37V5.27h4.91V17.3c0,3.15-0.85,5.57-2.56,7.27c-1.71,1.7-4.23,2.16-7.3,2.16S4.63,26.26,2.92,24.56z"
			/>
	</g>
</g>
</svg>
